<svg xmlns="http://www.w3.org/2000/svg" width="142" height="44" viewBox="0 0 142 44" fill="none"><g clip-path="url(#clip0_1652_2530)"><path d="M1.5915 4.25607C3.9575 2.85672 6.3051 1.4146 8.67725 0.0244141C8.67725 12.0706 8.67725 24.1189 8.67725 36.1691C7.48964 36.9116 6.28055 37.6113 5.08681 38.3354C4.03729 38.9739 2.96937 39.5789 1.9352 40.2419C1.56174 40.4851 1.14513 40.6552 0.707698 40.743V5.83873C0.30876 4.90991 1.06367 4.61354 1.5915 4.25607Z" fill="white"></path><path d="M8.67773 0.0244084C20.118 -0.0244771 31.5614 0.0244155 42.9987 0.00302811C44.3735 -0.0794662 45.7605 0.953237 45.8434 2.3587C45.8925 4.30189 45.8434 6.2512 45.8649 8.19745C45.8649 17.5101 45.8649 26.8238 45.8649 36.1386C33.4702 36.1905 21.0724 36.1386 8.67773 36.1661C8.68183 24.1199 8.68183 12.0726 8.67773 0.0244084ZM23.5888 8.48771C21.7476 15.0506 19.8173 21.5951 17.9638 28.155C19.6516 28.1733 21.3394 28.155 23.0242 28.155C23.376 26.6741 23.7617 25.2004 24.1811 23.7339C26.1512 23.7339 28.1214 23.7339 30.0884 23.7339C30.5549 25.2035 30.8924 26.7098 31.3589 28.1763C33.0682 28.155 34.7775 28.1763 36.4868 28.158C34.5995 21.4821 32.4176 14.8856 30.5365 8.20968C28.6952 7.90414 26.8263 8.15468 24.9728 8.06913C24.5125 8.12107 23.7361 7.87053 23.5888 8.48771Z" fill="white"></path><path d="M26.9874 11.6103C27.859 14.3601 28.3776 17.1985 29.1356 19.9789C27.7823 20.0217 26.4228 20.0003 25.0664 19.9789C25.7016 17.1924 26.4842 14.4273 26.9874 11.6103Z" fill="white"></path><path d="M23.5879 8.48775C23.7352 7.87668 24.5085 8.11805 24.9719 8.06611C26.8132 8.15166 28.6974 7.91029 30.5356 8.20666C32.4167 14.8826 34.5986 21.4821 36.4859 28.155C34.7766 28.1794 33.0673 28.155 31.358 28.1733C30.8915 26.7068 30.5509 25.2005 30.0875 23.7309C28.1174 23.7492 26.1473 23.7309 24.1802 23.7309C23.7608 25.1954 23.3751 26.6691 23.0233 28.1519C21.3355 28.1519 19.6476 28.1519 17.9629 28.1519C19.8164 21.5952 21.7313 15.0506 23.5879 8.48775ZM26.9881 11.6103C26.4848 14.4335 25.7054 17.1985 25.0578 19.9911C26.4142 19.9911 27.7737 20.0217 29.127 19.9911C28.3782 17.1924 27.8596 14.3601 26.9881 11.6103Z" fill="#C95B4A"></path><path d="M45.8633 8.20056H49.4414C49.4414 20.1347 49.4414 32.0679 49.4414 44H6.65072C5.91729 43.5753 5.21148 42.9123 5.13476 42.0232C5.04577 40.8011 5.13476 39.5789 5.0918 38.3385C6.28554 37.6144 7.4977 36.9147 8.68224 36.1722C21.0769 36.1417 33.4747 36.1967 45.8694 36.1447C45.8653 26.83 45.8633 17.5153 45.8633 8.20056Z" fill="white"></path><path d="M107.185 11.7478C109.618 9.95735 113.218 10.2598 115.526 12.1358C115.108 12.6369 114.682 13.1318 114.264 13.6329C113.442 13.3549 112.73 12.7499 111.84 12.6949C110.95 12.6399 110.054 12.5941 109.305 13.0799C108.848 13.3753 108.477 13.7844 108.228 14.2668C107.978 14.7491 107.86 15.2879 107.884 15.8297C107.86 17.4918 107.838 19.157 107.884 20.8191C107.891 21.3772 108.066 21.9204 108.388 22.3773C108.711 22.8343 109.164 23.1836 109.689 23.3795C111.269 23.795 112.92 23.3795 114.292 22.5362C114.599 23.0892 115.301 23.5414 115.231 24.2166C114.387 24.8301 113.423 25.2585 112.401 25.4734C111.379 25.6883 110.323 25.6848 109.302 25.4632C107.749 25.176 106.282 24.1769 105.675 22.692C104.889 20.9291 105.245 18.9584 105.159 17.0946C105.079 15.1545 105.521 12.9607 107.185 11.7478Z" fill="white"></path><path d="M68.3557 10.9076C69.8717 15.7442 71.5257 20.538 72.9834 25.3899C72.0627 25.3899 71.1636 25.3899 70.2583 25.3899C69.8717 24.1311 69.4236 22.8937 69.0953 21.6196C67.4596 21.4088 65.7994 21.5951 64.1546 21.5096C63.7019 22.7759 63.3238 24.0675 63.0222 25.3777C62.1016 25.399 61.1994 25.396 60.291 25.3777C61.7477 20.5421 63.2278 15.7136 64.7315 10.8923L68.3557 10.9076ZM64.6732 19.4258C65.9007 19.4258 67.1558 19.4258 68.3987 19.4258C67.7573 17.2321 67.1527 15.0323 66.5267 12.8355C65.8792 15.02 65.3176 17.2352 64.6824 19.4258H64.6732Z" fill="white"></path><path d="M131.221 10.9168C133.166 10.9168 135.115 10.877 137.051 10.9168C138.052 10.9703 139.015 11.315 139.822 11.908C140.628 12.501 141.241 13.3164 141.587 14.2532V21.6349C141.302 22.4398 140.828 23.1651 140.204 23.7498C139.58 24.3346 138.824 24.7619 138 24.9958C135.796 25.6068 133.479 25.3013 131.227 25.3777C131.208 20.5686 131.242 15.7411 131.221 10.9168ZM133.906 12.9149C133.906 16.3655 133.906 19.8149 133.906 23.2634C135.133 23.2298 136.481 23.4651 137.616 22.8295C138.73 22.2857 139.193 20.9963 139.236 19.8292C139.261 18.5826 139.264 17.3391 139.236 16.0925C139.215 14.9865 138.702 13.8163 137.677 13.2969C136.511 12.695 135.158 12.9669 133.906 12.9149Z" fill="white"></path><path d="M116.562 25.393C117.87 20.5228 119.478 15.7289 120.935 10.8984C122.163 10.8984 123.369 10.8984 124.587 10.932C126.073 15.7717 127.711 20.5594 129.215 25.3899C128.294 25.3899 127.395 25.3899 126.487 25.3899C126.014 24.1067 125.695 22.7715 125.173 21.5066C123.547 21.531 121.921 21.5066 120.294 21.5066C119.892 22.7898 119.579 24.0975 119.153 25.3746C118.287 25.3899 117.434 25.393 116.562 25.393ZM122.795 12.8325C122.04 14.9865 121.5 17.2138 120.905 19.4167C122.132 19.4167 123.36 19.4167 124.587 19.4167C124.032 17.2199 123.286 15.0659 122.795 12.8325Z" fill="white"></path><path d="M86.9877 11.7173C87.7984 11.6559 88.6119 11.6406 89.4243 11.6714C89.4243 12.5432 89.4243 13.4171 89.4243 14.2929C90.1792 14.2929 90.9372 14.2929 91.6952 14.2929C91.8315 14.9282 91.8882 15.5778 91.864 16.227C91.0538 16.2728 90.2437 16.2758 89.4335 16.2667C89.4335 18.4574 89.3875 20.6511 89.455 22.8418C89.7404 23.905 91.063 23.4529 91.8824 23.5201C91.9458 24.1535 91.9898 24.788 92.0144 25.4235C90.6303 25.6863 89.0653 25.8696 87.8255 25.0447C86.9478 24.4581 86.7791 23.3337 86.7361 22.3621C86.7115 20.3303 86.7361 18.2954 86.7177 16.2514H85.1035C85.1035 15.5996 85.1158 14.9468 85.1403 14.2929H86.865C86.9079 13.4435 86.957 12.5758 86.9877 11.7173Z" fill="white"></path><path d="M74.2104 14.2929C75.0942 14.2929 75.978 14.2929 76.8618 14.2929C76.9109 17.0275 76.8373 19.765 76.8956 22.4965C76.8956 23.2145 77.6474 23.6514 78.298 23.6637C79.3567 23.6637 80.2743 22.9823 80.885 22.1696C80.8573 19.542 80.8389 16.9114 80.885 14.2807C81.7197 14.2807 82.5574 14.2807 83.3952 14.2807C83.4412 17.9807 83.4228 21.6838 83.3952 25.3869C82.6556 25.3869 81.9161 25.3869 81.1765 25.3869C81.1335 25.0233 81.0936 24.6597 81.0507 24.2992C80.2528 24.8003 79.4948 25.4327 78.5282 25.561C77.0245 25.8666 75.1986 25.2555 74.5388 23.7981C74.1797 23.0312 74.1644 22.1635 74.1736 21.3355C74.2104 18.9859 74.1644 16.6394 74.2104 14.2929Z" fill="white"></path><path d="M96.8733 14.134C98.736 13.7918 100.939 14.1798 102.185 15.7136C103.195 16.9358 103.428 18.5612 103.373 20.0858C103.397 21.7815 102.86 23.627 101.418 24.6688C99.7825 25.8176 97.5331 25.9185 95.701 25.1944C94.0531 24.5344 93.022 22.8204 92.9391 21.091C92.9085 19.5175 92.7458 17.8157 93.5836 16.398C93.9174 15.792 94.3886 15.2718 94.9596 14.8788C95.5307 14.4858 96.1859 14.2308 96.8733 14.134ZM97.3367 16.1078C96.2074 16.3766 95.6274 17.5377 95.5629 18.6131C95.4862 19.9331 95.3788 21.363 96.0355 22.5851C96.8303 23.9264 98.8895 24.0242 99.942 22.9426C100.608 22.1512 100.715 21.0696 100.722 20.0736C100.722 18.9859 100.74 17.7913 100.062 16.8716C99.7252 16.5007 99.2902 16.2322 98.8069 16.097C98.3236 15.9619 97.8118 15.9656 97.3305 16.1078H97.3367Z" fill="white"></path></g><defs><clipPath id="clip0_1652_2530"><rect width="141" height="44" fill="white" transform="translate(0.59375)"></rect></clipPath></defs></svg>