<svg xmlns="http://www.w3.org/2000/svg" width="177" height="26" viewBox="0 0 177 26" fill="none"><g clip-path="url(#clip0_1894_1520)"><path d="M47.5055 11.1034V10.7593C47.5055 10.7593 49.7295 10.4228 49.7295 7.86872V4.8099C49.7295 1.57519 48.1904 0.0457764 44.9351 0.0457764H36.5469V23.8664H45.343C48.5983 23.8664 50.1374 22.337 50.1374 19.1023V14.6822C50.1374 11.4399 47.5055 11.1034 47.5055 11.1034ZM40.31 3.44872H43.9039C45.443 3.44872 45.9587 3.96107 45.9587 5.49048V7.53225C45.9587 9.06166 45.443 9.57401 43.9039 9.57401H40.31V3.44872ZM46.3742 18.414C46.3742 19.9434 45.8586 20.4558 44.3195 20.4558H40.3177V12.9693H44.3195C45.8586 12.9693 46.3742 13.4817 46.3742 15.0111V18.414Z" fill="white"></path><path d="M57.1089 20.4558H66.1897V23.8587H53.3457V0.0457764H57.1089V20.4558Z" fill="white"></path><path d="M82.1742 19.4387C82.1742 22.6734 80.6351 24.2028 77.3798 24.2028H72.5854C69.3301 24.2028 67.791 22.6734 67.791 19.4387V0.0457764H71.5696L71.5619 18.7581C71.5619 20.2875 72.0775 20.7999 73.6166 20.7999H76.3563C77.8954 20.7999 78.411 20.2875 78.411 18.7581L78.4033 0.0457764H82.1819V19.4387H82.1742Z" fill="white"></path><path d="M89.1479 10.0787H96.3434V13.4817H89.1479V20.4558H98.7367V23.8587H85.3848V0.0457764H98.4135V3.44872H89.1479V10.0787Z" fill="white"></path><path d="M122.185 10.0787H129.373V13.4817H122.185V20.4558H131.774V23.8587H118.422V0.0457764H131.428V3.44872H122.185V10.0787Z" fill="white"></path><path d="M143.67 0.0457764H139.299L133.396 23.8664H137.36L138.568 18.2534H144.386L145.594 23.8664H149.557L143.67 0.0457764ZM139.261 14.8428L141.315 5.65872H141.662L143.716 14.8428H139.261Z" fill="white"></path><path d="M159.316 23.8587L155.307 9.2299H154.96L154.976 23.8587H151.197V0.0457764H156.099L160.617 16.5481H160.955L165.465 0.0457764H170.375V23.8587H166.596L166.604 9.2299H166.265L162.264 23.8587H159.316Z" fill="white"></path><path d="M112.572 11.1034V10.7593C112.572 10.7593 114.796 10.4228 114.796 7.86872V4.8099C114.796 1.57519 113.257 0.0457764 110.002 0.0457764H101.613V23.8664H110.409C113.665 23.8664 115.204 22.337 115.204 19.1023V14.6822C115.211 11.4399 112.572 11.1034 112.572 11.1034ZM105.384 3.44872H108.978C110.517 3.44872 111.033 3.96107 111.033 5.49048V7.53225C111.033 9.06166 110.517 9.57401 108.978 9.57401H105.384V3.44872ZM111.441 18.414C111.441 19.9434 110.925 20.4558 109.386 20.4558H105.384V12.9693H109.386C110.925 12.9693 111.441 13.4817 111.441 15.0111V18.414Z" fill="white"></path><path d="M9.54383 16.8206V7.64557H18.7771V16.8206H9.54383ZM9.54383 -1.52942V3.05807H23.3938V21.4125H4.92719V-1.52942H0.310547V26H28.0149V-1.52942H9.54383Z" fill="white"></path><path d="M172.258 1.44526C172.258 1.19291 172.319 0.963501 172.443 0.741736C172.566 0.527618 172.743 0.351737 172.958 0.229384C173.174 0.107032 173.412 0.038208 173.666 0.038208C173.92 0.038208 174.151 0.0993828 174.374 0.221736C174.59 0.344089 174.767 0.51997 174.89 0.734087C175.013 0.955852 175.082 1.18526 175.082 1.43762C175.082 1.68232 175.021 1.91173 174.897 2.12585C174.774 2.33997 174.605 2.51585 174.39 2.64585C174.166 2.77585 173.928 2.83703 173.666 2.83703C173.404 2.83703 173.166 2.77585 172.95 2.64585C172.727 2.51585 172.558 2.34762 172.435 2.1335C172.319 1.92703 172.258 1.68997 172.258 1.44526ZM172.489 1.44526C172.489 1.65938 172.543 1.85056 172.65 2.03409C172.758 2.21762 172.904 2.35527 173.081 2.46232C173.258 2.56938 173.458 2.62291 173.674 2.62291C173.889 2.62291 174.082 2.56938 174.266 2.46232C174.451 2.35527 174.59 2.20997 174.697 2.03409C174.805 1.85821 174.851 1.65938 174.851 1.45291C174.851 1.24644 174.797 1.04762 174.69 0.864086C174.582 0.680557 174.436 0.535264 174.259 0.435852C174.082 0.336441 173.882 0.275265 173.666 0.275265C173.458 0.275265 173.258 0.328792 173.081 0.428204C172.897 0.527616 172.758 0.672914 172.65 0.856443C172.543 1.03997 172.489 1.23115 172.489 1.44526ZM174.243 1.11644C174.243 1.33056 174.151 1.47585 173.959 1.55232L174.405 2.29409H174.012L173.651 1.65174H173.481V2.29409H173.127V0.604089H173.62C173.835 0.604089 173.997 0.64997 174.097 0.734087C174.189 0.818205 174.243 0.940558 174.243 1.11644ZM173.474 1.37644H173.605C173.697 1.37644 173.766 1.3535 173.812 1.31527C173.859 1.26938 173.882 1.20821 173.882 1.13174C173.882 1.03997 173.859 0.978796 173.812 0.940561C173.766 0.902326 173.697 0.887032 173.597 0.887032H173.474V1.37644Z" fill="white"></path></g><defs><clipPath id="clip0_1894_1520"><rect width="177" height="26" fill="white"></rect></clipPath></defs></svg>