<svg xmlns="http://www.w3.org/2000/svg" width="92" height="28" viewBox="0 0 92 28" fill="none"><g clip-path="url(#clip0_1894_1468)"><path d="M22.66 0C22.8302 0.0561529 23.0098 0.0452343 23.1924 0.0857891C24.0089 0.271406 24.6928 1.04195 24.8223 1.8624C24.9051 8.88775 24.8942 15.9349 24.8286 22.9618C24.6803 23.8977 23.9418 24.6495 23.0066 24.8086C15.9686 24.8882 8.90407 24.8882 1.86606 24.8086C1.04485 24.6792 0.273607 23.996 0.0878206 23.1787C0.0456675 22.9962 0.0565961 22.8168 0.00195312 22.6468V2.20868C0.0519124 1.05911 0.957424 0.038995 2.1502 0.0343156L2.20953 0H22.66ZM18.3807 1.13242C17.7687 1.22756 17.2535 1.82029 17.1583 2.41925L17.1552 12.636C16.8257 15.6292 14.9101 17.384 11.8517 17.1843C7.48335 16.8989 6.36552 10.6425 10.1609 8.49156C11.3724 7.80525 11.9578 7.9971 13.2396 7.9004C15.3192 7.74442 15.3192 4.75896 13.2396 4.60297C12.32 4.53434 10.7853 4.53434 9.86579 4.60297C9.15855 4.65601 9.01492 4.93365 8.57621 5.37352C7.52395 6.4295 6.46856 7.48393 5.41161 8.53679C5.01505 8.93142 4.72623 9.06557 4.67939 9.71288C4.54825 11.516 4.78243 13.4736 4.67939 15.2939C4.7231 15.5965 4.85737 15.885 5.05408 16.1174C6.37801 17.2608 7.52863 18.8486 8.85567 19.9545C9.08361 20.1448 9.37712 20.3024 9.67844 20.3289C11.4239 20.4911 13.416 20.2041 15.188 20.3289C15.7141 20.2805 15.9249 19.9982 16.2528 19.6707C17.2473 18.6802 18.2355 17.6835 19.23 16.6946C19.6578 16.2687 20.1621 15.9739 20.2245 15.2939L20.2183 2.38182C20.0294 1.50053 19.2769 0.992034 18.3776 1.13242H18.3807ZM12.2779 10.1184C8.84787 10.3852 9.80334 15.7462 13.1756 14.7214C15.7891 13.9275 15.0662 9.90162 12.2779 10.1184Z" fill="white"></path><path d="M73.8224 4.79175L76.8528 13.3051L76.9496 13.3285L79.8519 4.79331H82.061V20.2915H79.8519V10.5958L79.7363 10.6176L77.4195 17.579C77.2493 17.5884 76.3032 17.6383 76.2376 17.5587L73.9379 10.6176L73.8224 10.5958V20.2915H71.6133V4.79175H73.8224Z" fill="white"></path><path d="M53.7834 4.79175L57.4928 14.4875V4.79175H59.702V20.2899H57.4554L53.7834 10.6316V20.2899H51.5742V4.79175H53.7834Z" fill="white"></path><path d="M32.8105 4.79172C33.9549 4.83384 35.1368 4.73713 36.2765 4.79172C38.9602 4.91651 40.1124 6.30005 40.2279 8.92832C40.3341 11.3335 40.1452 13.8167 40.2264 16.2298C40.153 17.267 40.0078 18.1764 39.3099 18.9828C37.6691 20.8748 35.0228 20.148 32.8105 20.293V4.79172ZM35.0197 18.1187H36.3498C36.4997 18.1187 36.9369 17.9876 37.0805 17.9128C37.8471 17.5166 37.9782 16.6759 38.0172 15.8928C38.1437 13.4283 37.9548 10.9108 37.9735 8.44634C37.9173 7.71323 37.3662 6.96297 36.5747 6.96297H35.0197V18.1187Z" fill="white"></path><path d="M87.7116 4.57803C90.1518 4.39242 91.8223 5.87111 91.9535 8.29036C92.1049 11.0746 91.8364 13.993 91.9535 16.7913C92.0253 19.8407 88.6093 21.4067 86.0832 20.0341C84.6532 19.2558 84.2707 18.0844 84.1973 16.5292C84.0724 13.9072 84.2956 11.1854 84.1973 8.55241C84.1551 6.37492 85.5165 4.74493 87.7116 4.57803ZM87.7865 6.74928C86.8279 6.8647 86.4579 7.59781 86.4064 8.47754C86.2534 11.1448 86.5266 13.9587 86.4064 16.6415C86.3284 18.7738 89.5226 18.975 89.7365 16.8973C89.7115 13.8994 89.8099 10.8859 89.6866 7.89729C89.482 7.02536 88.6312 6.64633 87.785 6.74928H87.7865Z" fill="white"></path><path d="M61.2773 20.2899L64.648 4.79169L66.6105 4.78857L70.003 20.2883H67.7939L67.0601 16.9925L64.1984 16.9956L63.4865 20.2899H61.2773ZM66.7822 15.0115L65.6019 9.17162L64.4591 15.0115H66.7807H66.7822Z" fill="white"></path><path d="M43.6722 4.79175L45.6378 10.9327L45.7518 10.8937L47.605 4.79175H49.964L46.7057 13.7201V20.2899H44.4966V13.6452L41.2383 4.79175H43.6722Z" fill="white"></path><path d="M52.0626 23.4719L52.9806 27.1031L54.011 23.4734L54.7791 23.4688L55.9204 27.1031L56.8197 23.4719H57.6424L56.3654 27.9235L55.4723 27.9251L54.4404 24.3703L53.3928 27.8892L52.5669 27.9298L51.2383 23.4719H52.0626Z" fill="white"></path><path d="M39.0953 23.4079C40.8767 23.241 41.8696 24.2596 41.7197 26.0315C41.5792 27.6942 40.018 28.3026 38.5504 27.8611C36.5302 27.2544 36.5927 23.6419 39.0953 23.4079ZM39.0937 24.0428C38.0134 24.1894 37.8276 25.5901 38.093 26.4464C38.3459 27.2637 39.15 27.5071 39.9259 27.309C40.8985 27.0625 41.0094 25.8256 40.8064 25.0067C40.6035 24.1878 39.89 23.9351 39.0922 24.0428H39.0937Z" fill="white"></path><path d="M67.6056 27.9267H66.7251L65.5448 26.1298H64.7579V27.9267H63.9336V23.4719H65.7883C65.9866 23.4719 66.5455 23.6591 66.7188 23.7776C67.3917 24.2362 67.3136 25.3109 66.6423 25.7477C66.5596 25.8023 66.2489 25.9161 66.2598 25.9926L67.604 27.9267H67.6056ZM64.7595 25.5309H65.6775C65.7134 25.5309 65.985 25.4295 66.035 25.4014C66.5252 25.1394 66.48 24.3579 65.9195 24.1645C65.8523 24.1411 65.5776 24.0693 65.5276 24.0693H64.7595V25.5293V25.5309Z" fill="white"></path><path d="M62.7744 27.9267H61.9126L61.4583 26.696L59.5489 26.7147L59.104 27.9267H58.2422L60.0766 23.4516C60.2218 23.4392 60.8947 23.3939 60.9587 23.4719L62.7744 27.9267ZM61.2023 26.0549L60.5091 24.1083L59.8159 26.0549H61.2023Z" fill="white"></path><path d="M71.5759 23.4719V24.0709H69.6275V25.3063H71.4635V25.9052H69.6275V27.3278H71.5759V27.9267H68.8047V23.4719H71.5759Z" fill="white"></path><path d="M32.7734 27.0656C33.284 27.298 34.5782 27.5991 34.9841 27.1218C35.1606 26.9143 35.1387 26.5634 34.9482 26.3715C34.4346 25.8552 33.0326 25.8661 32.8655 24.8959C32.572 23.1958 34.7297 23.2129 35.8069 23.6606L35.5602 24.2549C35.0388 24.0599 33.5681 23.7136 33.6337 24.6526C33.6587 25.0129 33.9959 25.1408 34.2847 25.275C34.9826 25.601 35.899 25.7289 35.899 26.71C35.899 28.2136 33.7711 28.1091 32.7734 27.7769V27.0656Z" fill="white"></path><path d="M46.0681 23.4719V24.0709H44.1399L44.0837 24.127V25.4373L44.1399 25.4934H45.9556V26.0924H44.0837V27.9267H43.2969V23.4719H46.0681Z" fill="white"></path><path d="M50.6001 23.4719V24.0709H49.1966L49.1404 24.127V27.9267H48.3535V24.0709H46.9297V23.4719H50.6001Z" fill="white"></path></g><defs><clipPath id="clip0_1894_1468"><rect width="92" height="28" fill="white"></rect></clipPath></defs></svg>