<svg xmlns="http://www.w3.org/2000/svg" width="183" height="35" viewBox="0 0 183 35" fill="none"><g clip-path="url(#clip0_1652_2510)"><path d="M13.952 22.8776H0C0 29.199 5.1299 34.3147 11.462 34.3147H25.414C25.414 27.9933 20.2663 22.8776 13.952 22.8776Z" fill="white"></path><path d="M0 11.437V0C6.3321 0 11.462 5.11919 11.462 11.437V22.8741C5.1299 22.8776 0 17.737 0 11.437Z" fill="white"></path><path d="M37.2285 34.3147V0C40.4035 0 43.0005 2.56852 43.0005 5.73992V34.2932L37.2285 34.3147Z" fill="white"></path><path d="M66.4208 10.4453C69.5958 10.4453 72.1928 13.0138 72.1928 16.2066V22.8776C72.1928 24.8682 71.9039 26.627 71.3402 28.1217C70.7802 29.6129 69.9704 30.8793 68.9537 31.8924C67.9155 32.9091 66.6705 33.6761 65.215 34.1934C63.7631 34.7106 62.1435 34.9604 60.3777 34.9604C58.6118 34.9604 56.9922 34.7107 55.5403 34.2148C54.0884 33.7189 52.8398 32.9519 51.8017 31.9352C50.7636 30.9185 49.9752 29.6557 49.4151 28.1431C48.855 26.6305 48.5625 24.8682 48.5625 22.8812V10.4631C51.7375 10.4631 54.3345 13.0317 54.3345 16.2245V22.8955C54.3345 25.175 54.8732 26.8731 55.9755 27.9719C57.0743 29.0706 58.5512 29.6093 60.3777 29.6093C62.2042 29.6093 63.6775 29.0706 64.7798 27.9719C65.8786 26.8731 66.4208 25.175 66.4208 22.8955V10.4453Z" fill="white"></path><path d="M92.3745 34.3146V20.6801C92.3745 18.7537 91.9179 17.3446 90.9832 16.4742C90.07 15.6037 88.907 15.1685 87.5157 15.1685C86.1244 15.1685 84.9401 15.6037 84.0268 16.4527C83.1136 17.3018 82.6784 18.7109 82.6784 20.6801V34.3146H76.9277V20.6801C76.9277 18.8144 77.1774 17.1983 77.6947 15.832C78.2156 14.4657 78.9183 13.3456 79.7923 12.4537C80.6842 11.5619 81.7437 10.8983 82.9673 10.4631C84.1909 10.0279 85.5216 9.82098 86.9342 9.82098C88.7393 9.82098 90.3375 10.1956 91.7502 10.8983C93.1629 11.6225 94.283 12.6606 95.1571 14.0055H95.2605C96.0917 12.6571 97.2333 11.6225 98.6246 10.8983C100.016 10.1742 101.657 9.82098 103.483 9.82098C104.896 9.82098 106.223 10.0279 107.45 10.4631C108.674 10.8983 109.733 11.5619 110.625 12.4537C111.517 13.3456 112.223 14.4621 112.723 15.832C113.244 17.1983 113.49 18.8144 113.49 20.6801V34.3146H107.718V20.6801C107.718 18.7109 107.261 17.3018 106.369 16.4527C105.478 15.6037 104.293 15.1685 102.88 15.1685C101.468 15.1685 100.348 15.6037 99.4344 16.4742C98.5211 17.3446 98.0859 18.7537 98.0859 20.6801V34.3146H92.3745Z" fill="white"></path><path d="M119.098 34.3147V10.4453C122.273 10.4453 124.87 13.0138 124.87 16.2066V34.3361L119.098 34.3147Z" fill="white"></path><path d="M155.224 22.3782C155.224 24.1797 154.914 25.86 154.29 27.4118C153.665 28.9671 152.774 30.2906 151.632 31.3894C150.49 32.4882 149.121 33.38 147.544 34.0007C145.967 34.6214 144.244 34.9318 142.353 34.9318C140.462 34.9318 138.718 34.6214 137.141 34.0007C135.564 33.38 134.212 32.5096 133.071 31.3894C131.929 30.2692 131.037 28.9457 130.413 27.4118C129.789 25.8778 129.479 24.2011 129.479 22.3782C129.479 20.5553 129.789 18.8964 130.413 17.3624C131.037 15.8071 131.929 14.4836 133.071 13.3848C134.212 12.2861 135.561 11.3942 137.141 10.7735C138.7 10.1528 140.441 9.84241 142.353 9.84241C144.265 9.84241 145.946 10.1528 147.544 10.7735C149.121 11.3942 150.49 12.2647 151.632 13.3848C152.774 14.505 153.665 15.8285 154.29 17.3624C154.914 18.8964 155.224 20.5731 155.224 22.3782ZM142.35 29.57C144.486 29.57 146.192 28.9065 147.458 27.5616C148.725 26.2131 149.367 24.4936 149.367 22.3604C149.367 20.2271 148.725 18.5076 147.458 17.1591C146.192 15.8106 144.49 15.1507 142.35 15.1507C140.209 15.1507 138.508 15.8142 137.22 17.1591C135.932 18.5076 135.29 20.2271 135.29 22.3604C135.29 24.4936 135.932 26.2131 137.22 27.5616C138.508 28.9101 140.209 29.57 142.35 29.57Z" fill="white"></path><path d="M176.878 34.3146V21.9037C176.878 19.6242 176.318 17.9261 175.237 16.8273C174.138 15.7286 172.661 15.1899 170.835 15.1899C169.008 15.1899 167.535 15.7286 166.433 16.8273C165.334 17.9261 164.792 19.6242 164.792 21.9037V34.3146H159.02V21.9037C159.02 19.9131 159.308 18.1544 159.872 16.6597C160.432 15.1685 161.242 13.9021 162.259 12.8889C163.297 11.8722 164.542 11.1052 165.997 10.588C167.449 10.0707 169.069 9.82098 170.835 9.82098C172.601 9.82098 174.22 10.0707 175.672 10.5666C177.124 11.0624 178.373 11.8294 179.411 12.8461C180.449 13.8628 181.237 15.1257 181.797 16.6383C182.357 18.1508 182.65 19.9131 182.65 21.9001V34.3111H176.878V34.3146Z" fill="white"></path></g><defs><clipPath id="clip0_1652_2510"><rect width="182.65" height="34.9568" fill="white"></rect></clipPath></defs></svg>