<svg xmlns="http://www.w3.org/2000/svg" width="169" height="22" viewBox="0 0 169 22" fill="none"><g clip-path="url(#clip0_1894_1507)"><path d="M72.9585 14.2401H84.1257L78.2209 4.72719L67.3835 21.9269H62.4514L75.6331 1.26622C76.2061 0.431633 77.1614 -0.0727539 78.2209 -0.0727539C79.2455 -0.0727539 80.2007 0.414115 80.7566 1.23151L93.9904 21.9269H89.0584L86.7313 18.0835H75.4252L72.9588 14.2401H72.9585ZM124.192 18.0832V0.13581H120.007V19.84C120.007 20.379 120.215 20.901 120.615 21.3009C121.014 21.7008 121.552 21.9269 122.143 21.9269H141.23L143.696 18.0835H124.192L124.192 18.0832ZM54.9484 14.8658C59.0127 14.8658 62.3125 11.579 62.3125 7.50958C62.3125 3.43978 59.0127 0.135479 54.9484 0.135479H36.638V21.9272H40.8221V3.97953H54.6708C56.616 3.97953 58.1789 5.56243 58.1789 7.51024C58.1789 9.45772 56.616 11.0403 54.6708 11.0403L42.8715 11.0231L55.3653 21.9272H61.444L53.0383 14.8665H54.9488L54.9484 14.8658ZM10.8827 21.9269C4.87525 21.9272 0 17.0576 0 11.0403C0 5.02268 4.87525 0.13614 10.8827 0.13614H23.5313C29.54 0.13614 34.4116 5.02268 34.4116 11.0403C34.4116 17.0576 29.54 21.9269 23.5309 21.9269H10.8827ZM23.25 18.0835C27.142 18.0835 30.2942 14.9356 30.2942 11.04C30.2942 7.14467 27.142 3.97953 23.25 3.97953H11.1626C7.27195 3.97953 4.11805 7.14467 4.11805 11.0403C4.11805 14.9356 7.27195 18.0835 11.1623 18.0835H23.2497H23.25ZM102.726 21.9269C96.7175 21.9269 91.837 17.0576 91.837 11.0403C91.837 5.02268 96.7175 0.13614 102.726 0.13614H117.749L115.3 3.97953H103.004C99.1139 3.97953 95.953 7.14467 95.953 11.0403C95.953 14.9356 99.1139 18.0835 103.004 18.0835H118.096L115.63 21.9269H102.726ZM153.908 18.0835C150.695 18.0835 147.968 15.9272 147.135 12.9531H165.023L167.489 9.10967H147.135C147.968 6.15309 150.695 3.97953 153.908 3.97953H166.187L168.67 0.135479H153.63C147.621 0.135479 142.741 5.02235 142.741 11.0396C142.741 17.0572 147.621 21.9266 153.63 21.9266H166.534L169 18.0835H153.908H153.908Z" fill="white"></path></g><defs><clipPath id="clip0_1894_1507"><rect width="169" height="22" fill="white"></rect></clipPath></defs></svg>