<svg xmlns="http://www.w3.org/2000/svg" width="117" height="15" viewBox="0 0 117 15" fill="none"><path d="M64.4672 3.37353C64.4672 2.06703 64.2527 1.20903 63.7067 0.663029C63.1607 0.234029 62.3027 0.0195312 60.8987 0.0195312H52.4552C51.0512 0.0195312 50.1737 0.234029 49.6472 0.663029C49.1012 1.09203 48.8867 1.96953 48.8867 3.37353V10.842C48.8867 12.1485 49.1012 13.0065 49.6472 13.5525C50.1932 13.9815 51.0512 14.196 52.4552 14.196H60.8987C62.3027 14.196 63.1802 13.9815 63.7067 13.5525C64.2527 13.1235 64.4672 12.246 64.4672 10.842V9.00903H60.8987L59.4752 11.4855H54.2687L51.6752 7.05903L54.2687 2.61303H59.4752L60.8792 5.10903H64.4477V3.37353H64.4672Z" fill="white"></path><path d="M47.891 9.00903V10.842C47.891 12.1485 47.6765 13.0065 47.1305 13.5525C46.5845 13.9815 45.7265 14.196 44.3225 14.196H35.879C34.475 14.196 33.5975 13.9815 33.071 13.5525C32.525 13.1235 32.3105 12.246 32.3105 10.842V3.37353C32.3105 2.06703 32.525 1.20903 33.071 0.663029C33.617 0.234029 34.475 0.0195312 35.879 0.0195312H44.3225C45.7265 0.0195312 46.604 0.234029 47.1305 0.663029C47.6765 1.09203 47.891 1.96953 47.891 3.37353V4.99203V9.00903ZM35.099 7.05903L37.6925 11.505H42.899L45.4925 7.05903L42.899 2.61303H37.6925L35.099 7.05903Z" fill="white"></path><path d="M80.9242 9.00903V10.842C80.9242 12.1485 80.7098 13.0065 80.1638 13.5525C79.6178 13.9815 78.7598 14.196 77.3558 14.196H68.9122C67.5082 14.196 66.6307 13.9815 66.1042 13.5525C65.5582 13.1235 65.3438 12.246 65.3438 10.842V3.37353C65.3438 2.06703 65.5582 1.20903 66.1042 0.663029C66.7477 0.234029 67.6252 0.0195312 69.0292 0.0195312H77.4727C78.8767 0.0195312 79.7543 0.234029 80.2808 0.663029C80.8268 1.09203 81.0413 1.96953 81.0413 3.37353V4.99203V9.00903H80.9242ZM68.2492 7.05903L70.8427 11.505H76.0492L78.6427 7.05903L76.0492 2.61303H70.8427L68.2492 7.05903Z" fill="white"></path><path d="M53.957 7.05899L55.361 9.53549H58.286L59.69 7.05899L58.286 4.56299H55.361L53.957 7.05899Z" fill="white"></path><path d="M0 14.196V0H11.7C14.196 0 15.2685 1.1895 15.2685 2.808V6.0645C15.2685 7.683 14.2935 8.8725 11.7 8.8725H3.9V14.079H0V14.196ZM10.179 3.159H3.9V5.8695H10.179C10.608 5.8695 10.9395 5.8695 11.037 5.7525C11.2515 5.6355 11.3685 5.421 11.3685 5.109V4.017C11.3685 3.6855 11.2515 3.471 11.037 3.3735C10.9395 3.2565 10.608 3.159 10.179 3.159Z" fill="white"></path><path d="M16.0293 14.196V0H27.7293C30.2253 0 31.2978 1.1895 31.2978 2.808V6.0645C31.2978 7.683 30.3228 8.8725 27.7293 8.8725H27.3003L33.4818 14.079H27.7488L22.2303 8.8725H19.9488V14.079H16.0488V14.196H16.0293ZM26.2083 3.159H19.9293V5.8695H26.2083C26.6373 5.8695 26.9688 5.8695 27.0663 5.7525C27.2808 5.6355 27.3978 5.421 27.3978 5.109V4.017C27.3978 3.6855 27.2808 3.471 27.0663 3.3735C26.9688 3.2565 26.6568 3.159 26.2083 3.159Z" fill="white"></path><path d="M82.1152 14.196V0H93.8152C96.3112 0 97.3837 1.1895 97.3837 2.808V6.0645C97.3837 7.683 96.4087 8.8725 93.8152 8.8725H93.3862L99.5677 14.079H93.8347L88.3162 8.8725H86.0347V14.079H82.1347V14.196H82.1152ZM92.1967 3.159H85.9177V5.8695H92.1967C92.6257 5.8695 92.9572 5.8695 93.0547 5.7525C93.2692 5.6355 93.3862 5.421 93.3862 5.109V4.017C93.3862 3.6855 93.2692 3.471 93.0547 3.3735C92.9572 3.2565 92.6257 3.159 92.1967 3.159Z" fill="white"></path><path d="M98.3574 14.196V0H112.865V3.1395H102.374V5.304H108.556V8.4435H102.374V10.8225H113.099V14.1765H98.3574V14.196Z" fill="white"></path><path d="M117.001 1.521C117.001 2.379 116.357 3.042 115.382 3.042C114.524 3.042 113.764 2.3985 113.764 1.521C113.764 0.643498 114.524 0 115.382 0C116.357 0.0195 117.001 0.662998 117.001 1.521ZM114.193 1.521C114.193 2.1645 114.739 2.7105 115.382 2.7105C116.026 2.7105 116.572 2.1645 116.572 1.521C116.572 0.877498 116.026 0.214501 115.382 0.214501C114.719 0.331501 114.193 0.877498 114.193 1.521ZM115.168 2.3985H114.836V0.760499C114.953 0.760499 115.168 0.760499 115.382 0.760499C115.714 0.760499 115.811 0.7605 115.928 0.8775C116.045 0.9945 116.045 1.092 116.045 1.209C116.045 1.4235 115.928 1.5405 115.714 1.5405C115.831 1.6575 115.928 1.755 116.045 1.872C116.045 2.0865 116.162 2.2035 116.162 2.301H115.733C115.733 2.184 115.616 2.0865 115.616 1.9695C115.616 1.755 115.499 1.755 115.285 1.755H115.051V2.3985H115.168ZM115.168 1.521H115.382C115.597 1.521 115.714 1.404 115.714 1.3065C115.714 1.1895 115.597 1.092 115.382 1.092C115.265 1.092 115.265 1.092 115.168 1.092V1.521Z" fill="white"></path></svg>