<svg xmlns="http://www.w3.org/2000/svg" width="117" height="39" viewBox="0 0 117 39" fill="none"><g clip-path="url(#clip0_1667_2766)"><mask id="mask0_1667_2766" style="mask-type:luminance" maskUnits="userSpaceOnUse" x="-3" y="-20" width="124" height="79"><path d="M120.338 -19.0461H-2.98438V58.9026H120.338V-19.0461Z" fill="white"></path></mask><g mask="url(#mask0_1667_2766)"><path d="M38.6086 7.77795C39.6096 7.776 40.6116 7.77795 41.6117 7.77698C41.6117 18.1627 41.6136 28.5484 41.6117 38.9341C30.0223 38.9341 18.4339 38.9341 6.84446 38.9341C6.43595 38.9438 6.01396 38.9263 5.63821 38.7762C4.85396 38.4907 4.31153 37.7911 4.32117 37.0643C4.31924 34.5485 4.32117 32.0327 4.32117 29.5169C5.32316 28.9995 6.32997 28.4889 7.331 27.9706C17.7575 27.9637 28.184 27.9784 38.6096 27.9637C38.6144 21.2348 38.6144 14.5059 38.6096 7.77795" fill="white"></path><path d="M51.084 21.0692L52.349 19.8386C53.1275 20.7242 54.247 21.266 55.4157 21.266C56.778 21.266 57.8975 20.7242 57.8975 19.2968V18.8535C57.8975 17.3276 56.3396 16.934 55.4157 16.934H54.248V15.3585H55.3675C56.2924 15.3585 57.5093 15.0135 57.5093 13.7829V13.3893C57.5093 12.2084 56.5362 11.765 55.4166 11.765C54.2971 11.765 53.2267 12.2571 52.4473 13.094L51.2796 11.9131C52.3991 10.7322 53.956 10.092 55.6113 10.092C57.8503 10.092 59.6992 11.273 59.6992 13.1437V13.8326C59.6992 14.9648 58.6288 15.8018 57.6066 16.0473C58.677 16.2441 60.1376 17.1795 60.1376 18.7054V19.4927C60.1376 21.4618 58.1904 22.9877 55.5621 22.9877C53.2749 22.9877 52.0089 22.1507 51.084 21.0682" fill="white"></path><path d="M69.7738 9.64868V22.7421H68.0705L67.8267 21.7083C67.2428 22.4956 66.2688 22.9877 65.2475 22.9877C63.0576 22.9877 61.5488 21.2153 61.5488 18.5572V17.5731C61.5488 14.9648 63.1058 13.094 65.3448 13.094C66.1725 13.0443 66.9509 13.3892 67.5348 13.931V9.64868H69.7738ZM67.5839 20.2322V15.5065C67.0974 15.0145 66.4162 14.7192 65.7341 14.7192C64.4681 14.7192 63.7388 15.6546 63.7388 17.4757V18.5582C63.7388 20.429 64.4691 21.3147 65.6368 21.3147C66.4152 21.3147 67.1455 20.921 67.5839 20.2322Z" fill="white"></path><path d="M71.1846 21.6596L72.2068 20.3803C72.9371 20.9707 73.862 21.3156 74.8351 21.3156C75.9546 21.3156 76.5876 21.0204 76.5876 20.2819V20.1347C76.5876 19.4946 76.2465 19.249 75.0297 18.8057L73.862 18.4121C72.4014 17.8703 71.6229 17.1814 71.6229 16.0005V15.6069C71.6229 14.081 73.0835 13.0472 75.1762 13.0472C76.4421 13.0472 77.658 13.4409 78.6802 14.2282L77.658 15.4091C76.9277 14.917 76.1001 14.6218 75.2243 14.6705C74.2512 14.6705 73.7637 15.0642 73.7637 15.5562V15.7043C73.7637 16.1964 74.0557 16.5413 75.2725 16.9349L76.4402 17.3286C77.7544 17.8206 78.7274 18.4111 78.7274 19.8385V20.2322C78.7274 22.0045 77.0241 22.8902 74.9796 22.8902C73.6173 23.0383 72.254 22.5453 71.1836 21.6596" fill="white"></path><path d="M97.0292 10.3386V22.7422H94.8875V13.6855L92.3083 20.9708H89.9719L87.3436 13.439V22.7422H85.3965V10.3386H88.2685L91.2861 19.1L94.3528 10.3873V10.3386H97.0292Z" fill="white"></path><path d="M106.667 16.3923V22.7422H104.964L104.769 21.8565C104.039 22.595 103.017 22.9887 101.996 22.9887C100.34 22.9887 98.8809 21.9549 98.8809 20.3306V19.6905C98.8809 18.0662 100.341 16.9837 102.774 16.9837H104.478V16.2948C104.478 15.1626 103.894 14.7193 102.822 14.7193C101.849 14.7193 100.924 14.9658 100.097 15.4082L99.4156 14.0304C100.486 13.3903 101.752 13.0463 102.969 13.0463C105.548 13.0463 106.667 14.3754 106.667 16.3932M104.526 20.429V18.3615H103.017C101.751 18.3615 101.07 18.8535 101.07 19.7889V20.1338C101.07 20.8724 101.508 21.3644 102.432 21.3644C103.211 21.3644 103.99 21.0195 104.525 20.429" fill="white"></path><path d="M116.644 22.7421H114.259L112.312 19.2471L110.219 22.7421H107.932L110.949 18.0165L108.029 13.2918H110.414L112.312 16.8356L114.259 13.2918H116.547L113.627 18.0165L116.644 22.7421Z" fill="white"></path><path d="M21.4202 7.52072C22.8027 7.34339 24.2373 7.43303 25.5553 7.90949C26.5515 8.27293 27.4928 8.89846 28.0622 9.81923C28.4235 10.3951 28.6027 11.0801 28.595 11.7611C28.5873 12.3828 28.6605 13.0395 28.3831 13.6183C27.8705 14.7281 26.751 15.4218 25.6102 15.7161C26.6402 15.9285 27.6624 16.3708 28.386 17.1649C28.938 17.7495 29.255 18.5544 29.2434 19.3641C29.2309 20.1494 29.3215 20.9571 29.07 21.7162C28.7357 22.7996 27.9331 23.6814 26.9793 24.2544C25.6363 25.0718 24.035 25.3554 22.4838 25.3135C21.1832 25.2755 19.8507 25.0465 18.7052 24.3927C17.7658 23.8714 16.9998 23.0335 16.5798 22.0357C16.337 21.4813 16.1954 20.885 16.127 20.2838C17.4479 20.2838 18.7668 20.2838 20.0877 20.2838C20.158 20.8597 20.424 21.4248 20.8874 21.7785C21.4847 22.2452 22.2825 22.331 23.0128 22.2696C23.667 22.2121 24.3529 21.9315 24.7123 21.3478C25.0524 20.8246 25.0553 20.1747 25.0418 19.5706C25.0601 19.0133 24.8645 18.4306 24.4387 18.0613C23.9194 17.6024 23.2189 17.4368 22.5493 17.3764C21.9337 17.3374 21.3171 17.3666 20.7005 17.353C20.6918 16.4001 20.6976 15.4481 20.6976 14.4962C21.4924 14.4698 22.3037 14.5712 23.0831 14.3666C23.5793 14.2331 24.0755 13.9388 24.2855 13.4439C24.484 13.0229 24.431 12.5465 24.4377 12.0953C24.4358 11.6783 24.3221 11.2369 24.0177 10.9388C23.6014 10.5178 22.979 10.4058 22.4116 10.4194C21.8518 10.4136 21.2651 10.5909 20.87 11.007C20.5078 11.3704 20.3276 11.881 20.2843 12.3876C18.9634 12.3974 17.6425 12.3896 16.3216 12.3915C16.3669 11.1755 16.9218 10.0053 17.7889 9.16934C18.7687 8.22031 20.0887 7.70098 21.4182 7.51877" fill="#C95B4A"></path><path d="M0.756795 4.92296C2.94866 3.59393 5.1357 2.25321 7.3266 0.921265C7.32852 11.2076 7.31985 21.4929 7.33045 31.7792C6.32942 32.395 5.32261 33.002 4.32062 33.6169C3.1163 34.3428 1.9245 35.0911 0.712475 35.8033C0.724037 25.7245 0.713439 15.6458 0.717293 5.56701C0.731744 5.35362 0.66912 5.12368 0.756795 4.92296Z" fill="white"></path><path d="M7.32574 0.921372C17.0133 0.918449 26.7008 0.921373 36.3884 0.919424C36.9848 0.911629 37.5753 1.16691 37.9887 1.6005C38.3769 2.0107 38.6101 2.57194 38.6053 3.14291C38.6101 4.68727 38.6053 6.2326 38.6082 7.77793C38.613 15.7755 38.613 23.773 38.6082 31.7705C28.1826 31.7891 17.7561 31.7705 7.3296 31.7793C7.319 21.493 7.32767 11.2077 7.32574 0.921372ZM21.4201 7.52071C20.0906 7.70291 18.7716 8.22224 17.7908 9.17127C16.9237 10.0082 16.3687 11.1784 16.3235 12.3935C17.6444 12.3915 18.9662 12.3993 20.2861 12.3896C20.3295 11.8829 20.5097 11.3714 20.8719 11.0089C21.2669 10.5929 21.8537 10.4155 22.4135 10.4214C22.9809 10.4068 23.6033 10.5188 24.0195 10.9407C24.324 11.2379 24.4377 11.6802 24.4396 12.0973C24.4338 12.5494 24.4858 13.0249 24.2874 13.4458C24.0773 13.9408 23.5802 14.235 23.085 14.3685C22.3055 14.5731 21.4943 14.4718 20.6995 14.4981C20.6995 15.45 20.6937 16.402 20.7024 17.3549C21.319 17.3686 21.9356 17.3393 22.5512 17.3783C23.2208 17.4377 23.9213 17.6043 24.4406 18.0633C24.8654 18.4335 25.062 19.0152 25.0437 19.5726C25.0581 20.1767 25.0543 20.8256 24.7142 21.3498C24.3539 21.9334 23.6688 22.215 23.0146 22.2715C22.2843 22.3339 21.4876 22.2481 20.8893 21.7804C20.4258 21.4268 20.159 20.8616 20.0896 20.2858C18.7687 20.2858 17.4497 20.2858 16.1288 20.2858C16.1963 20.887 16.3389 21.4833 16.5817 22.0377C17.0017 23.0354 17.7677 23.8743 18.707 24.3947C19.8526 25.0484 21.1841 25.2774 22.4857 25.3154C24.0369 25.3573 25.6381 25.0738 26.9812 24.2563C27.9341 23.6834 28.7376 22.8016 29.0719 21.7181C29.3224 20.9591 29.2328 20.1513 29.2453 19.366C29.2569 18.5563 28.9409 17.7505 28.3878 17.1669C27.6643 16.3737 26.6411 15.9304 25.6121 15.718C26.7529 15.4228 27.8734 14.73 28.3849 13.6202C28.6634 13.0414 28.5892 12.3847 28.5969 11.7631C28.6046 11.082 28.4264 10.397 28.0641 9.82117C27.4947 8.9004 26.5534 8.27486 25.5572 7.91142C24.2392 7.43399 22.8046 7.34435 21.4221 7.52265" fill="white"></path></g></g><defs><clipPath id="clip0_1667_2766"><rect width="116" height="38" fill="white" transform="translate(0.675781 0.928223)"></rect></clipPath></defs></svg>