<svg xmlns="http://www.w3.org/2000/svg" width="96" height="38" viewBox="0 0 96 38" fill="none"><g clip-path="url(#clip0_1663_2751)"><mask id="mask0_1663_2751" style="mask-type:luminance" maskUnits="userSpaceOnUse" x="1" y="-16" width="96" height="71"><path d="M96.0879 -16H1.08789V54.7192H96.0879V-16Z" fill="white"></path></mask><g mask="url(#mask0_1663_2751)"><path d="M59.4104 17.4506H57.547V22.3063H55.3262V10.0601H59.4852C60.5972 10.004 61.6969 10.3072 62.6209 10.9242C63.3892 11.4685 63.8322 12.3584 63.8001 13.2937V14.2018C63.8184 14.8355 63.6076 15.4556 63.2075 15.9498C62.7737 16.4698 62.2055 16.8624 61.564 17.0853L64.3973 22.3154H61.9504L59.4119 17.4491L59.4104 17.4506ZM57.547 15.8088H59.4104C59.9709 15.8406 60.5269 15.6875 60.9912 15.3722C61.3716 15.0826 61.5854 14.6248 61.564 14.1488V13.3968C61.5884 12.9132 61.3716 12.4493 60.9821 12.1583C60.5162 11.8429 59.9587 11.6898 59.3966 11.7216H57.547V15.8103V15.8088Z" fill="white"></path><path d="M73.7544 18.3238H67.6876C67.6418 19.0287 67.8694 19.7231 68.3245 20.2658C68.8301 20.7145 69.4975 20.9374 70.1742 20.8874C70.6018 20.8919 71.028 20.8237 71.4312 20.6827C71.8619 20.5296 72.2774 20.3401 72.6745 20.1142L73.4519 21.4104C72.98 21.7454 72.4607 22.0107 71.9108 22.1972C71.306 22.4049 70.6721 22.5095 70.0321 22.508C69.1951 22.5292 68.3673 22.3336 67.6296 21.9395C66.9743 21.5817 66.4382 21.042 66.0884 20.3856C65.7264 19.6867 65.5447 18.909 65.5599 18.1222V17.1504C65.5416 16.3682 65.7096 15.5935 66.0487 14.887C66.3756 14.2306 66.8857 13.6818 67.5165 13.3043C68.1886 12.9102 68.9584 12.7101 69.7373 12.7267C70.8584 12.66 71.952 13.0845 72.731 13.888C73.4351 14.6642 73.788 15.786 73.788 17.2535C73.8002 17.6098 73.788 17.9675 73.7544 18.3223M71.8467 16.8245C71.8879 16.1665 71.6985 15.5131 71.309 14.9795C70.9211 14.5384 70.3468 14.3034 69.7587 14.3428C69.1814 14.3049 68.6208 14.5414 68.2466 14.9795C67.8541 15.5495 67.657 16.2317 67.6891 16.9215H71.8482V16.8245H71.8467Z" fill="white"></path><path d="M80.7735 22.2972H78.0792L75.0352 12.992H77.3048L79.4722 20.5629L81.6396 12.992H83.8222L80.7735 22.2972Z" fill="white"></path><path d="M88.3337 22.2972H86.1465V14.6051H84.7383V12.9935H88.3337V22.2972ZM86.2198 11.1668C85.9648 10.9303 85.8212 10.5968 85.8288 10.2496C85.8319 9.52343 86.4291 8.93674 87.1607 8.93977C87.5059 8.93977 87.8373 9.07621 88.0848 9.31725C88.3414 9.55981 88.4819 9.89788 88.4712 10.2496C88.4804 10.5968 88.3398 10.9303 88.0848 11.1668C87.567 11.6716 86.7376 11.6716 86.2214 11.1668" fill="white"></path><path d="M96.3069 22.2973C95.7753 22.4473 95.2255 22.5231 94.6726 22.5201C93.918 22.5716 93.1696 22.3533 92.5632 21.9031C92.0546 21.3983 91.795 20.6964 91.8545 19.9854V14.6051H90.3867V12.9936H91.8545L92.0302 10.7059H93.9868V12.9936H96.0121V14.6051H93.9868V19.8641C93.9669 20.1445 94.0708 20.4189 94.2709 20.616C94.5183 20.7979 94.8253 20.8843 95.1323 20.8586C95.4408 20.8586 95.7494 20.8282 96.0518 20.7706L96.3069 22.2957V22.2973Z" fill="white"></path><path d="M44.8944 38.4093H9.98148C8.79471 38.4093 7.83398 37.4542 7.83398 36.2778V7.72546H44.8944V38.4108V38.4093Z" fill="white"></path><path d="M10.4961 0.410767H40.08C41.2668 0.410767 42.2275 1.36584 42.2275 2.54226V31.0946H10.4961V0.410767Z" fill="white"></path><path d="M3.79297 35.4121L10.4951 31.0961V0.410767L3.79297 4.72833V35.4121Z" fill="white"></path><path d="M32.6971 22.511V24.5061C32.2755 24.6789 31.8219 24.7638 31.3667 24.7532C30.7542 24.7683 30.1509 24.6122 29.6255 24.3014C29.068 23.9285 28.6266 23.4085 28.3486 22.8006L25.8101 17.9448H22.9921V24.5046H19.8945V7.43593H25.6925C27.2458 7.36165 28.7824 7.79371 30.0669 8.66389C31.1391 9.42644 31.7577 10.6711 31.7149 11.9809V13.3938C31.7256 14.2428 31.4415 15.069 30.9131 15.7345C30.3372 16.4546 29.5797 17.011 28.7167 17.346L31.0017 21.6878C31.2812 22.229 31.857 22.555 32.4695 22.5186L32.6986 22.5095L32.6971 22.511ZM22.9905 15.6542H25.5688C26.3569 15.6966 27.1389 15.4844 27.7942 15.0478C28.341 14.6415 28.6495 13.9911 28.6159 13.315V12.0961C28.651 11.42 28.3425 10.7711 27.7942 10.3679C27.1389 9.92975 26.3569 9.71448 25.5688 9.75541H22.9905V15.6557V15.6542Z" fill="#C95B4A"></path></g></g><defs><clipPath id="clip0_1663_2751"><rect width="95" height="37" fill="white" transform="translate(0.675781 0.428223)"></rect></clipPath></defs></svg>