<svg xmlns="http://www.w3.org/2000/svg" width="183" height="37" viewBox="0 0 183 37" fill="none"><g clip-path="url(#clip0_1652_2519)"><path d="M45.7207 24.1761L48.885 22.5137C50.2905 25.2927 52.4631 26.6341 55.4026 26.6341C58.3421 26.6341 60.2257 25.7065 60.2257 23.5697C60.2257 21.4328 58.7559 20.5659 54.8603 19.4173C50.2905 18.0759 46.6161 16.8309 46.6161 12.3217C46.6161 8.29772 49.9052 5.64716 54.6998 5.64716C59.4944 5.64716 62.1128 7.94812 63.5505 10.7235L60.6431 12.7355C59.2375 10.3704 57.2219 9.28589 54.6677 9.28589C52.1135 9.28589 50.5438 10.2455 50.5438 11.9721C50.5438 14.1768 52.2347 14.9116 56.1018 16.0603C60.5753 17.3696 64.1534 18.8393 64.1534 23.2807C64.1534 27.1442 60.8642 30.18 55.242 30.18C50.5474 30.18 47.2226 27.7578 45.7207 24.1761Z" fill="white"></path><path d="M65.8184 29.7341V6.09308H69.7496V20.1842L76.1709 12.7712H80.4839L74.9544 18.9713L80.9619 29.7377H76.838L72.4608 21.8787L69.746 24.8504V29.7377H65.8184V29.7341Z" fill="white"></path><path d="M80.7422 21.2723C80.7422 14.8189 85.312 12.4537 88.8259 12.4537C92.6287 12.4537 96.271 14.7226 96.271 21.6255V22.553H84.6734C84.834 25.6174 86.7211 26.9623 89.2112 26.9623C91.4158 26.9623 92.6965 26.2274 93.9736 24.9824L96.0498 27.0301C94.2911 28.9779 91.9616 30.0944 88.9258 30.0944C84.6734 30.0944 80.7458 27.501 80.7458 21.2723H80.7422ZM92.6608 19.6099C92.4361 17.0236 91.1589 15.6465 88.7973 15.6465C86.8817 15.6465 85.1229 16.7346 84.7377 19.6099H92.6608Z" fill="white"></path><path d="M100.516 25.2963V15.8998H97.5762V12.7677H100.516V6.85651H104.443V12.7677H108.821V15.8998H104.443V24.301C104.443 26.1239 104.986 26.8588 106.933 26.8588C107.508 26.8588 108.243 26.7625 108.624 26.6341V29.7341C108.211 29.8305 106.737 29.9589 105.749 29.9589C101.44 29.9589 100.512 28.3607 100.512 25.2963H100.516Z" fill="white"></path><path d="M110.357 21.2723C110.357 14.7868 114.735 12.4537 118.505 12.4537C122.722 12.4537 124.513 14.7868 125.533 17.4053L122.208 18.5896C121.538 16.6739 120.321 15.7464 118.438 15.7464C116.201 15.7464 114.314 17.2162 114.314 21.2723C114.314 24.8825 115.783 26.8624 118.373 26.8624C120.161 26.8624 121.409 26.3202 122.337 23.9229L125.597 25.1072C124.384 27.822 122.372 30.0909 118.284 30.0909C114.196 30.0909 110.357 27.4689 110.357 21.2723Z" fill="white"></path><path d="M127.959 29.7341V6.09308H131.922V15.0686C133.01 13.9199 135.055 12.4466 138.119 12.4466C141.183 12.4466 143.006 14.2053 143.006 17.5586V29.7306H139.046V18.5468C139.046 16.6632 138.247 15.7999 136.521 15.7999C134.794 15.7999 133.356 16.6953 131.919 18.0046V29.7306H127.959V29.7341Z" fill="white"></path><path d="M146.014 21.1082V6.09308H150.009V20.755C150.009 24.3652 151.575 26.5056 155.218 26.5056C158.86 26.5056 160.394 24.4294 160.394 20.7836V6.09308H164.321V21.0761C164.321 26.4414 161.286 30.1158 155.185 30.1158C148.668 30.1158 146.014 26.4771 146.014 21.1046V21.1082Z" fill="white"></path><path d="M166.908 36.1233V12.7713H170.836V15.008C171.952 13.6667 173.711 12.4502 176.237 12.4502C180.1 12.4502 182.947 15.3576 182.947 21.2367C182.947 27.1157 180.04 29.9874 175.695 29.9874C173.872 29.9874 172.084 29.2526 170.836 27.847V36.1198H166.908V36.1233ZM179.019 21.2723C179.019 17.6942 177.485 15.8107 174.96 15.8107C173.333 15.8107 171.763 16.8345 170.836 17.9511V24.7577C171.888 26.1311 173.422 26.866 174.831 26.866C177.807 26.866 179.019 25.0431 179.019 21.2759V21.2723Z" fill="white"></path><path d="M34.2898 8.05158L22.2534 1.11659C22.2534 1.11659 20.3449 0 17.3055 0C14.266 0 12.3004 1.1487 12.3004 1.1487L1.15234 7.52718L18.1152 17.2768V36.9759L29.2776 30.601C29.2776 30.601 31.2718 29.4987 32.7879 26.8838C34.1221 24.5793 34.2898 22.3497 34.2898 22.3497V8.05158ZM16.1389 11.2622C16.1389 11.2622 18.6254 10.802 20.7301 12.0185C22.8349 13.235 24.0763 13.9449 24.0763 13.9449C24.0763 13.9449 24.0763 15.6358 24.0763 18.158C24.0763 20.1807 22.364 22.2783 22.364 22.2783V14.8582L16.1354 11.2622H16.1389ZM26.0027 27.5366L22.3676 29.62V27.6651L25.1965 26.0455C27.8899 24.1048 28.3322 21.2438 28.3322 20.2485L28.3215 11.4584L20.6088 7.02061C20.6088 7.02061 19.4352 6.25362 17.3304 6.25362C15.2257 6.25362 14.0734 6.96353 14.0734 6.96353L11.3658 8.51891L9.65698 7.53075L13.3992 5.39388C13.3992 5.39388 14.8654 4.58052 17.3197 4.58052C19.5743 4.58052 21.3259 5.46166 21.3259 5.46166L30.0339 10.4917L30.0232 20.0844C30.0838 21.5613 29.3989 25.1608 26.0027 27.5366Z" fill="white"></path><path d="M0.296875 13.9092L12.187 20.7301L12.1763 22.7635L5.4125 18.8857L1.15661 21.3044L12.1691 27.6508L12.1763 29.6093L0.378925 22.8205C0.411031 23.6161 1.13164 26.0669 2.50865 27.9647C3.91063 29.884 5.50525 30.7009 5.50525 30.7009L16.4107 36.9795V18.2579L0.307577 9.00763L0.296875 13.9092Z" fill="white"></path></g><defs><clipPath id="clip0_1652_2519"><rect width="182.65" height="36.9795" fill="white" transform="translate(0.296875)"></rect></clipPath></defs></svg>