<svg xmlns="http://www.w3.org/2000/svg" width="135" height="31" viewBox="0 0 135 31" fill="none"><g clip-path="url(#clip0_1894_1506)"><path d="M15.5 30.7698C6.9533 30.7698 0 23.8683 0 15.3846C0 6.90092 6.9533 0 15.5 0C24.0467 0 31 6.90154 31 15.3846C31 23.8677 24.0467 30.7698 15.5 30.7698ZM15.5 1.64431C7.86687 1.64431 1.65664 7.80831 1.65664 15.3846C1.65664 22.9609 7.86687 29.1249 15.5 29.1249C23.1331 29.1249 29.3434 22.9609 29.3434 15.3846C29.3434 7.80831 23.1331 1.64431 15.5 1.64431Z" fill="white"></path><path d="M8.25701 9.89077L14.0001 23.5643C14.0593 23.7068 14.2366 23.8243 14.3935 23.8243H16.9262C17.0818 23.8243 17.1621 23.7068 17.1044 23.5631L11.5294 9.74708C11.5033 9.68123 11.4224 9.62708 11.3511 9.62708H8.43433C8.27561 9.62708 8.19563 9.74646 8.25701 9.89077Z" fill="white"></path><path d="M19.6478 9.62519H22.5671C22.7258 9.62519 22.8049 9.74395 22.7444 9.88888L18.9491 18.9255C18.8834 19.0836 18.6574 19.0818 18.5935 18.9227L17.2776 15.6532C17.2252 15.524 17.2252 15.3123 17.2776 15.1815L19.4693 9.74426C19.4953 9.67842 19.5762 9.62488 19.6475 9.62488" fill="white"></path></g><path d="M41.0916 21.9979H38.9195L36 8.77173H38.3018L40.0055 18.8024L41.7262 8.77173H44.0279L41.0916 21.9979Z" fill="white"></path><path d="M45.3809 21.9979V8.77173H50.9763V10.6476H47.4787V14.4012H50.4902V16.2771H47.4787V20.1211H50.9763V21.9979H45.3809Z" fill="white"></path><path d="M58.1508 21.3111C57.5519 21.8506 56.8401 22.1474 55.8491 22.1474C54.5749 22.1474 53.8275 21.6629 53.2662 21.0331C52.2732 19.9188 52.293 18.0046 52.293 15.4036C52.293 12.8025 52.2732 10.852 53.2662 9.73969C53.8275 9.10786 54.5759 8.62244 55.8491 8.62244C56.8589 8.62244 57.5697 8.92018 58.1696 9.47733C58.825 10.0915 59.2002 11.0947 59.2369 12.2631H57.142C57.1212 11.7816 57.047 11.3168 56.8232 10.9827C56.6361 10.6869 56.356 10.5002 55.8501 10.5002C55.3442 10.5002 55.0452 10.7046 54.8571 11.0004C54.4641 11.6322 54.3878 12.9696 54.3878 15.3859C54.3878 17.8022 54.4631 19.1376 54.8571 19.7694C55.0442 20.0652 55.3452 20.2696 55.8501 20.2696C56.355 20.2696 56.6539 20.0838 56.8411 19.7871C57.0668 19.453 57.142 18.9705 57.1588 18.4861H59.2557C59.2171 19.676 58.825 20.698 58.1508 21.3102" fill="white"></path><path d="M64.7189 10.6478V21.9982H62.621V10.6478H60.3945V8.771H66.9622V10.6478H64.7189Z" fill="white"></path><path d="M74.2621 21.0322C73.6997 21.664 72.9513 22.1465 71.6801 22.1465C70.409 22.1465 69.6576 21.664 69.0972 21.0322C68.1043 19.9189 68.1231 17.986 68.1231 15.387C68.1231 12.7879 68.1052 10.8521 69.0972 9.73882C69.6576 9.10699 70.405 8.62354 71.6801 8.62354C72.9553 8.62354 73.6997 9.10699 74.2621 9.73882C75.2521 10.8521 75.2362 12.784 75.2362 15.387C75.2362 17.99 75.2521 19.9189 74.2621 21.0322ZM72.6899 11.0005C72.5028 10.7047 72.186 10.4984 71.6801 10.4984C71.1743 10.4984 70.8753 10.7038 70.6872 11.0005C70.2941 11.6323 70.2169 12.9697 70.2169 15.386C70.2169 17.8023 70.2932 19.1377 70.6872 19.7685C70.8743 20.0663 71.1733 20.2706 71.6801 20.2706C72.187 20.2706 72.5028 20.0663 72.6899 19.7685C73.083 19.1377 73.1394 17.7993 73.1394 15.386C73.1394 12.9727 73.083 11.6323 72.6899 11.0005Z" fill="white"></path><path d="M82.0661 21.9979L80.3247 16.5738H79.1447V21.9979H77.0488V8.76978H80.4188C82.8532 8.76978 83.8254 9.94107 83.8254 12.6718C83.8254 14.3079 83.4888 15.4762 82.2721 16.1257L84.256 21.997H82.0661V21.9979ZM80.4366 10.6476H79.1447V14.699H80.4366C81.5603 14.699 81.7286 13.7684 81.7286 12.6728C81.7286 11.5772 81.5603 10.6476 80.4366 10.6476Z" fill="white"></path><path d="M95.5818 21.9979H93.3919L91.4832 11.9476L89.5923 21.9979H87.4024L84.877 8.77173H87.1777L88.4885 18.8024L90.322 8.77173H92.6435L94.4958 18.8024L95.7877 8.77173H98.0895L95.5818 21.9979Z" fill="white"></path><path d="M105.1 21.0322C104.538 21.664 103.789 22.1465 102.518 22.1465C101.247 22.1465 100.495 21.664 99.9351 21.0322C98.9422 19.9189 98.961 17.986 98.961 15.387C98.961 12.7879 98.9431 10.8521 99.9351 9.73882C100.495 9.10699 101.243 8.62354 102.518 8.62354C103.793 8.62354 104.538 9.10699 105.1 9.73882C106.09 10.8521 106.074 12.784 106.074 15.387C106.074 17.99 106.09 19.9189 105.1 21.0322ZM103.527 11.0005C103.34 10.7047 103.021 10.4984 102.517 10.4984C102.013 10.4984 101.712 10.7038 101.524 11.0005C101.131 11.6323 101.054 12.9697 101.054 15.386C101.054 17.8023 101.13 19.1377 101.524 19.7685C101.711 20.0663 102.01 20.2706 102.517 20.2706C103.024 20.2706 103.34 20.0663 103.527 19.7685C103.92 19.1377 103.976 17.7993 103.976 15.386C103.976 12.9727 103.92 11.6323 103.527 11.0005Z" fill="white"></path><path d="M112.909 21.9979L111.168 16.5738H109.989V21.9979H107.893V8.76978H111.262C113.696 8.76978 114.668 9.94107 114.668 12.6718C114.668 14.3079 114.331 15.4762 113.115 16.1257L115.099 21.997H112.909V21.9979ZM111.279 10.6476H109.989V14.699H111.279C112.403 14.699 112.571 13.7684 112.571 12.6728C112.571 11.5772 112.403 10.6476 111.279 10.6476Z" fill="white"></path><path d="M121.978 21.9979L119.824 16.5551L118.815 18.598V21.9979H116.719V8.77173H118.815V14.9947L121.716 8.77173H123.83L121.153 14.2519L124.242 21.9979H121.978Z" fill="white"></path><path d="M131.041 21.255C130.498 21.7748 129.619 22.1276 128.439 22.1276C127.279 22.1276 126.42 21.8112 125.856 21.255C125.221 20.6232 124.996 19.8066 124.996 18.4132H127.091C127.091 19.1178 127.167 19.5639 127.466 19.899C127.652 20.1044 127.973 20.2527 128.439 20.2527C128.926 20.2527 129.244 20.122 129.45 19.8793C129.73 19.5639 129.805 19.1178 129.805 18.4132C129.805 17.0002 129.582 16.6661 128.552 16.2397L126.961 15.5892C125.612 15.031 125.106 14.3068 125.106 12.262C125.106 11.074 125.462 10.109 126.192 9.45854C126.773 8.95641 127.522 8.66064 128.477 8.66064C129.541 8.66064 130.328 8.93774 130.873 9.45854C131.565 10.1267 131.808 11.074 131.808 12.3367H129.712C129.712 11.7441 129.674 11.2803 129.394 10.9256C129.205 10.6849 128.907 10.5355 128.458 10.5355C128.028 10.5355 127.766 10.6849 127.56 10.9079C127.317 11.186 127.202 11.6321 127.202 12.206C127.202 13.2839 127.372 13.619 128.307 13.9894L129.88 14.6232C131.47 15.2551 131.9 16.109 131.9 18.3396C131.9 19.6936 131.714 20.6055 131.039 21.255" fill="white"></path><path d="M133.859 10.9276C133.228 10.9276 132.717 10.4205 132.717 9.7946C132.717 9.16866 133.228 8.66064 133.859 8.66064C134.491 8.66064 135.002 9.16768 135.002 9.7946C135.002 10.4215 134.491 10.9276 133.859 10.9276ZM133.859 8.79625C133.314 8.79625 132.866 9.25317 132.866 9.7946C132.866 10.336 133.314 10.7939 133.859 10.7939C134.405 10.7939 134.853 10.337 134.853 9.7946C134.853 9.25219 134.406 8.79625 133.859 8.79625ZM134.162 10.4205L133.85 9.89777H133.642V10.4205H133.501V9.16572H133.904C134.112 9.16572 134.296 9.32195 134.296 9.53518C134.296 9.71992 134.175 9.83882 134.008 9.88599L134.327 10.4205H134.162ZM133.888 9.29346H133.642V9.772H133.888C134.039 9.772 134.153 9.67177 134.153 9.5342C134.153 9.39663 134.039 9.29346 133.888 9.29346Z" fill="white"></path><defs><clipPath id="clip0_1894_1506"><rect width="31" height="30.7698" fill="white"></rect></clipPath></defs></svg>